#!OML:ASF F:\VICON\USERDATA\INSTALL\Justin_Nancy\Justin_Nancy.ASF
:FULLY-SPECIFIED
:DEGREES
100
root 10.9361 16.4713 2.15966 -11.0941 -50.8214 21.8182
lowerback 12.4638 -2.41874 -10.2307
upperback -0.136257 -4.94884 -2.64138
thorax -6.53961 -2.14744 3.78922
lowerneck -20.8043 -7.90333 -12.084
upperneck 14.9519 -9.5202 11.2747
head 9.26639 -4.0229 4.47363
rclavicle -9.46215e-014 1.55052e-014
rhumerus -59.4822 17.787 -103.301
rradius 112.669
rwrist -16.6797
rhand -5.54351 20.613
rfingers 7.12502
rthumb 20.2711 -8.34913
lclavicle -9.46215e-014 1.55052e-014
lhumerus -48.9845 -7.86781 98.9978
lradius 118.286
lwrist 29.6929
lhand -9.91373 10.8301
lfingers 7.12502
lthumb 16.0667 40.184
rfemur -48.234 -5.64818 28.7645
rtibia 61.91
rfoot -13.8491 -4.08433
rtoes -13.8628
lfemur 12.8375 -2.02146 -16.4891
ltibia 23.5134
lfoot 10.3754 4.03926
ltoes -25.7621
101
root 10.7159 16.5255 2.38066 -11.7449 -51.9445 22.6671
lowerback 12.41 -2.57084 -10.2114
upperback -0.469852 -5.15123 -2.43964
thorax -6.82555 -2.21547 4.03187
lowerneck -20.9529 -7.80152 -12.6294
upperneck 15.2815 -9.20671 11.2055
head 9.38884 -3.90846 4.59103
rclavicle 3.81667e-014 -2.98177e-014
rhumerus -60.3575 18.1811 -102.476
rradius 112.865
rwrist -17.2269
rhand -6.42145 20.2188
rfingers 7.12502
rthumb 19.4272 -8.8307
lclavicle 3.81667e-014 -2.98177e-014
lhumerus -49.5071 -7.29898 99.5767
lradius 117.717
lwrist 29.9995
lhand -10.0588 10.2057
lfingers 7.12502
lthumb 15.927 39.5708
rfemur -47.6003 -5.75354 29.6816
rtibia 59.6716
rfoot -13.3518 -5.25246
rtoes -10.6994
lfemur 13.8388 -3.47594 -17.5051
ltibia 22.336
lfoot 14.8576 -0.332906
ltoes -29.5083
102
root 10.4975 16.5763 2.59617 -12.78 -53.1678 23.9943
lowerback 12.2996 -2.58301 -10.4893
upperback -0.694521 -5.19831 -2.26528
thorax -6.96123 -2.2096 4.37711
lowerneck -21.3377 -7.60891 -13.1718
upperneck 15.4837 -8.75116 11.2739
head 9.49601 -3.70822 4.77702
rclavicle 2.95195e-014 9.93923e-015
rhumerus -60.2028 17.702 -101.493
rradius 112.321
rwrist -17.0742
rhand -6.64814 19.9968
rfingers 7.12502
rthumb 19.2092 -9.07453
lclavicle 2.95195e-014 9.93923e-015
lhumerus -49.7318 -7.05091 100.056
lradius 117.054
lwrist 30.2244
lhand -10.0285 9.97416
lfingers 7.12502
lthumb 15.9562 39.3369
rfemur -46.9406 -5.79947 30.2802
rtibia 57.689
rfoot -12.9478 -6.49154
rtoes -6.51568
lfemur 14.3712 -4.81515 -18.8007
ltibia 22.0109
lfoot 16.6064 -6.77659
ltoes -34.3578
103
root 10.2766 16.6114 2.81466 -13.8036 -54.1496 25.2707
lowerback 12.1597 -2.66504 -10.6147
upperback -0.85646 -5.3089 -2.12615
thorax -7.01763 -2.24717 4.60663
lowerneck -21.4442 -7.3826 -13.4493
upperneck 15.3349 -8.28807 11.136
head 9.40556 -3.51978 4.84607
rclavicle -1.5207e-014 1.51076e-014
rhumerus -59.9006 17.0748 -100.443
rradius 111.817
rwrist -16.48
rhand -6.58984 19.9189
rfingers 7.12502
rthumb 19.2653 -9.14687
lclavicle -1.5207e-014 1.51076e-014
lhumerus -49.7865 -6.95515 100.413
lradius 116.266
lwrist 30.6631
lhand -10.759 9.9172
lfingers 7.12502
lthumb 15.2526 39.3349
rfemur -46.2813 -6.14355 30.8627
rtibia 56.0541
rfoot -12.5107 -7.92649
rtoes -4.15937
lfemur 14.6156 -6.65159 -20.2037
ltibia 22.2901
lfoot 18.708 -5.87635
ltoes -24.5381
104
root 10.0614 16.6281 3.03164 -14.6484 -54.9351 26.4018
lowerback 11.8938 -2.76516 -10.4152
upperback -0.93081 -5.38408 -2.12633
thorax -6.95233 -2.29367 4.49135
lowerneck -21.3145 -7.30332 -13.4494
upperneck 14.9717 -8.09549 10.8283
head 9.21528 -3.46449 4.76312
rclavicle 1.12313e-014 2.22639e-014
rhumerus -59.5988 16.3859 -99.3722
rradius 111.606
rwrist -15.4939
rhand -6.45062 19.7195
rfingers 7.12502
rthumb 19.3991 -9.33287
lclavicle 1.12313e-014 2.22639e-014
lhumerus -49.6048 -7.39685 100.589
lradius 115.379
lwrist 31.4542
lhand -11.6697 9.6917
lfingers 7.12502
lthumb 14.3753 39.1739
rfemur -45.7604 -6.59984 31.4546
rtibia 54.7448
rfoot -11.7887 -9.56397
rtoes -2.25588
lfemur 14.5218 -8.28431 -21.4417
ltibia 23.154
lfoot 20.2507 -6.82779
ltoes -16.455
